<svg width="50" height="51" viewBox="0 0 50 51" fill="none" xmlns="http://www.w3.org/2000/svg">
<path d="M0 40.5823V50.9976H10.4153L41.1333 20.2795L30.7181 9.86426L0 40.5823ZM49.1878 12.225C49.4452 11.9681 49.6495 11.6629 49.7889 11.3269C49.9283 10.9909 50 10.6307 50 10.267C50 9.90323 49.9283 9.54305 49.7889 9.20705C49.6495 8.87106 49.4452 8.56586 49.1878 8.30891L42.6887 1.80979C42.4317 1.55232 42.1265 1.34805 41.7905 1.20867C41.4545 1.0693 41.0943 0.997559 40.7306 0.997559C40.3668 0.997559 40.0066 1.0693 39.6707 1.20867C39.3347 1.34805 39.0295 1.55232 38.7725 1.80979L33.6899 6.89244L44.1051 17.3077L49.1878 12.225V12.225Z" fill="black"/>
</svg>
